<?xml version="1.0" standalone="no"?>
<!DOCTYPE svg PUBLIC "-//W3C//DTD SVG 20010904//EN"
 "http://www.w3.org/TR/2001/REC-SVG-20010904/DTD/svg10.dtd">
<svg version="1.0" xmlns="http://www.w3.org/2000/svg"
 width="500.000000pt" height="500.000000pt" viewBox="0 0 500.000000 500.000000"
 preserveAspectRatio="xMidYMid meet">
<metadata>
Created by potrace 1.14, written by Peter Selinger 2001-2017
</metadata>
<g transform="translate(0.000000,500.000000) scale(0.100000,-0.100000)"
fill="#000000" stroke="none">
<path d="M524 4658 c8 -59 49 -184 106 -324 36 -88 104 -198 170 -274 16 -19
30 -40 30 -45 0 -6 -26 -11 -61 -12 -34 -1 -66 -6 -71 -11 -13 -13 58 -99 129
-158 81 -67 143 -127 137 -133 -3 -3 -34 -4 -69 -3 -71 3 -86 -8 -56 -41 11
-12 50 -58 88 -102 37 -44 78 -88 91 -99 49 -39 82 -81 76 -96 -11 -25 -64
-213 -70 -245 -2 -16 -7 -37 -9 -45 -2 -8 -7 -33 -10 -55 -3 -23 -7 -50 -9
-61 -9 -46 -19 -182 -18 -230 2 -45 9 -88 27 -172 16 -72 127 -311 163 -354 8
-10 12 -18 8 -18 -4 0 6 -18 23 -39 17 -21 31 -42 31 -45 0 -10 181 -246 230
-301 136 -150 354 -349 505 -460 22 -17 42 -33 45 -36 3 -3 50 -38 105 -77 55
-39 111 -80 125 -92 14 -11 30 -20 37 -20 6 0 13 -4 15 -8 2 -5 46 -36 98 -70
52 -33 100 -65 106 -69 10 -8 28 -18 77 -45 12 -7 24 -15 27 -18 16 -16 344
-182 435 -219 44 -18 99 -42 122 -52 24 -11 45 -19 49 -19 8 0 142 -68 179
-90 l30 -19 0 397 c0 543 9 621 91 800 56 121 115 198 186 241 49 29 267 137
296 146 12 3 22 11 22 17 0 6 3 9 6 6 3 -3 44 10 92 29 82 33 393 142 419 147
7 1 16 5 19 9 4 4 15 7 23 7 9 0 27 7 39 16 l22 15 -29 42 c-30 45 -121 197
-121 204 0 2 -5 9 -10 16 -6 7 -29 37 -51 67 -85 118 -197 237 -294 315 -27
22 -52 42 -55 45 -14 14 -102 70 -109 70 -5 0 -11 3 -13 8 -4 9 -66 45 -148
84 -78 38 -71 33 -74 50 -33 171 -194 412 -371 554 -189 152 -487 276 -765
320 -19 3 -42 7 -50 9 -8 3 -33 7 -55 10 -22 3 -62 10 -90 15 -27 5 -71 12
-97 15 -26 3 -62 7 -80 9 -44 6 -113 15 -163 21 -22 3 -51 8 -65 10 -36 7 -88
16 -119 20 -14 2 -26 4 -26 5 0 1 -9 3 -20 4 -28 4 -118 23 -200 41 -38 9 -81
18 -95 21 -14 2 -36 8 -50 13 -14 5 -43 14 -65 20 -216 59 -468 151 -650 236
-79 37 -167 91 -173 107 -2 4 -9 8 -15 8 -7 0 -18 9 -25 20 -23 37 -35 24 -28
-32z"/>
</g>
</svg>
